<?xml version="1.0" encoding="UTF-8" standalone="no"?>
<!-- Created with Inkscape (http://www.inkscape.org/) -->

<svg
   xmlns:dc="http://purl.org/dc/elements/1.1/"
   xmlns:cc="http://creativecommons.org/ns#"
   xmlns:rdf="http://www.w3.org/1999/02/22-rdf-syntax-ns#"
   xmlns:svg="http://www.w3.org/2000/svg"
   xmlns="http://www.w3.org/2000/svg"
   xmlns:sodipodi="http://sodipodi.sourceforge.net/DTD/sodipodi-0.dtd"
   xmlns:inkscape="http://www.inkscape.org/namespaces/inkscape"
   width="229.52188"
   height="229.52188"
   id="svg2"
   version="1.1"
   inkscape:version="0.48.5 r10040"
   sodipodi:docname="experimentation.svg">
  <sodipodi:namedview
     id="base"
     pagecolor="#ffffff"
     bordercolor="#666666"
     borderopacity="1.0"
     inkscape:pageopacity="0.0"
     inkscape:pageshadow="2"
     inkscape:zoom="2.2281508"
     inkscape:cx="63.2441"
     inkscape:cy="129.35891"
     inkscape:document-units="px"
     inkscape:current-layer="layer1"
     showgrid="false"
     fit-margin-top="10"
     fit-margin-left="10"
     fit-margin-right="10"
     fit-margin-bottom="10"
     inkscape:window-width="1325"
     inkscape:window-height="669"
     inkscape:window-x="0"
     inkscape:window-y="0"
     inkscape:window-maximized="0" />
  <defs
     id="defs4">
    <marker
       inkscape:stockid="EmptyDiamondMstart"
       orient="auto"
       refY="0.0"
       refX="0.0"
       id="EmptyDiamondMstart"
       style="overflow:visible">
      <path
         id="path3883"
         d="M 0,-7.0710768 L -7.0710894,0 L 0,7.0710589 L 7.0710462,0 L 0,-7.0710768 z "
         style="fill-rule:evenodd;fill:#FFFFFF;stroke:#000000;stroke-width:1.0pt"
         transform="scale(0.4) translate(6.5,0)" />
    </marker>
    <marker
       inkscape:stockid="StopL"
       orient="auto"
       refY="0.0"
       refX="0.0"
       id="StopL"
       style="overflow:visible">
      <path
         id="path3934"
         d="M 0.0,5.65 L 0.0,-5.65"
         style="fill:none;fill-opacity:0.75000000;fill-rule:evenodd;stroke:#000000;stroke-width:1.0pt"
         transform="scale(0.8)" />
    </marker>
    <marker
       inkscape:stockid="StopS"
       orient="auto"
       refY="0.0"
       refX="0.0"
       id="StopS"
       style="overflow:visible">
      <path
         id="path3940"
         d="M 0.0,5.65 L 0.0,-5.65"
         style="fill:none;fill-opacity:0.75000000;fill-rule:evenodd;stroke:#000000;stroke-width:1.0pt"
         transform="scale(0.2)" />
    </marker>
    <marker
       style="overflow:visible"
       id="Arrow2Sstart"
       refX="0.0"
       refY="0.0"
       orient="auto"
       inkscape:stockid="Arrow2Sstart">
      <path
         transform="scale(0.3) translate(-2.3,0)"
         d="M 8.7185878,4.0337352 L -2.2072895,0.016013256 L 8.7185884,-4.0017078 C 6.9730900,-1.6296469 6.9831476,1.6157441 8.7185878,4.0337352 z "
         style="fill-rule:evenodd;stroke-width:0.62500000;stroke-linejoin:round"
         id="path3795" />
    </marker>
    <marker
       style="overflow:visible"
       id="DotS"
       refX="0.0"
       refY="0.0"
       orient="auto"
       inkscape:stockid="DotS">
      <path
         transform="scale(0.2) translate(7.4, 1)"
         style="fill-rule:evenodd;stroke:#000000;stroke-width:1.0pt"
         d="M -2.5,-1.0 C -2.5,1.7600000 -4.7400000,4.0 -7.5,4.0 C -10.260000,4.0 -12.5,1.7600000 -12.5,-1.0 C -12.5,-3.7600000 -10.260000,-6.0 -7.5,-6.0 C -4.7400000,-6.0 -2.5,-3.7600000 -2.5,-1.0 z "
         id="path3832" />
    </marker>
    <marker
       style="overflow:visible"
       id="Arrow1Send"
       refX="0"
       refY="0"
       orient="auto"
       inkscape:stockid="Arrow1Send">
      <path
         inkscape:connector-curvature="0"
         transform="matrix(-0.2,0,0,-0.2,-1.2,0)"
         style="fill-rule:evenodd;stroke:#000000;stroke-width:1pt"
         d="M 0,0 5,-5 -12.5,0 5,5 0,0 z"
         id="path3780" />
    </marker>
    <marker
       style="overflow:visible"
       id="TriangleOutM"
       refX="0"
       refY="0"
       orient="auto"
       inkscape:stockid="TriangleOutM">
      <path
         inkscape:connector-curvature="0"
         transform="scale(0.4,0.4)"
         style="fill-rule:evenodd;stroke:#000000;stroke-width:1pt"
         d="m 5.77,0 -8.65,5 0,-10 8.65,5 z"
         id="path3910" />
    </marker>
    <marker
       style="overflow:visible"
       id="EmptyTriangleOutM"
       refX="0"
       refY="0"
       orient="auto"
       inkscape:stockid="EmptyTriangleOutM">
      <path
         inkscape:connector-curvature="0"
         transform="matrix(0.4,0,0,0.4,-1.8,0)"
         style="fill:#ffffff;fill-rule:evenodd;stroke:#000000;stroke-width:1pt"
         d="m 5.77,0 -8.65,5 0,-10 8.65,5 z"
         id="path3928" />
    </marker>
    <marker
       style="overflow:visible"
       id="DotS2"
       refX="0.0"
       refY="0.0"
       orient="auto"
       inkscape:stockid="DotS2">
      <path
         transform="scale(0.2) translate(7.4, 1)"
         style="stroke:#ffffff;stroke-width:1.0pt;fill:#ffffff;fill-rule:evenodd"
         d="M -2.5,-1.0 C -2.5,1.7600000 -4.7400000,4.0 -7.5,4.0 C -10.260000,4.0 -12.5,1.7600000 -12.5,-1.0 C -12.5,-3.7600000 -10.260000,-6.0 -7.5,-6.0 C -4.7400000,-6.0 -2.5,-3.7600000 -2.5,-1.0 z "
         id="path6658" />
    </marker>
    <marker
       style="overflow:visible"
       id="DotSb"
       refX="0.0"
       refY="0.0"
       orient="auto"
       inkscape:stockid="DotSb">
      <path
         transform="scale(0.2) translate(7.4, 1)"
         style="stroke:#ffffff;stroke-width:1.0pt;fill:#ffffff;fill-rule:evenodd"
         d="M -2.5,-1.0 C -2.5,1.7600000 -4.7400000,4.0 -7.5,4.0 C -10.260000,4.0 -12.5,1.7600000 -12.5,-1.0 C -12.5,-3.7600000 -10.260000,-6.0 -7.5,-6.0 C -4.7400000,-6.0 -2.5,-3.7600000 -2.5,-1.0 z "
         id="path6661" />
    </marker>
  </defs>
  <metadata
     id="metadata7">
    <rdf:RDF>
      <cc:Work
         rdf:about="">
        <dc:format>image/svg+xml</dc:format>
        <dc:type
           rdf:resource="http://purl.org/dc/dcmitype/StillImage" />
        <dc:title />
      </cc:Work>
    </rdf:RDF>
  </metadata>
  <g
     transform="translate(-70.585338,-15.048359)"
     id="layer1"
     inkscape:groupmode="layer"
     inkscape:label="Ebene 1">
    <path
       transform="translate(-8.8061464,-11.489418)"
       d="m 299.06114,136.97244 c 0,57.85787 -46.90307,104.76094 -104.76094,104.76094 -57.85787,0 -104.760939,-46.90307 -104.760939,-104.76094 0,-57.857867 46.903069,-104.760938 104.760939,-104.760938 57.85787,0 104.76094,46.903071 104.76094,104.760938 z"
       sodipodi:ry="104.76094"
       sodipodi:rx="104.76094"
       sodipodi:cy="136.97244"
       sodipodi:cx="194.3002"
       id="path2985"
       style="fill:#80b3ff;stroke:none"
       sodipodi:type="arc" />
    <g
       id="g8399"
       transform="translate(3.0702833,6.961616)">
      <path
         sodipodi:nodetypes="ccsssssscc"
         transform="translate(70.585338,15.048359)"
         inkscape:connector-curvature="0"
         id="path8351"
         d="m 94.126462,54.516619 0.197458,30.667876 c 0,0 -35.777122,52.740765 -35.985952,53.155515 -2.461703,4.88905 -1.178462,8.61299 0.570435,12.11078 1.748897,3.49779 5.820538,6.06016 8.512649,6.05538 l 86.552568,-0.15357 c 6.85062,-0.0122 10.57038,-5.19492 12.08884,-8.90757 1.47184,-3.59869 0.23932,-9.69477 -1.90876,-12.72509 L 128.52344,84.455825 127.88718,53.915603"
         style="fill:none;stroke:#ffffff;stroke-width:10;stroke-linecap:butt;stroke-linejoin:miter;stroke-miterlimit:4;stroke-opacity:1;stroke-dasharray:none" />
      <rect
         ry="4.8522806"
         y="57.591976"
         x="160.34622"
         height="9.7045612"
         width="44.155087"
         id="rect8353"
         style="fill:#ffffff;fill-opacity:1;stroke:#ffffff;stroke-width:10.20739079;stroke-miterlimit:4;stroke-dasharray:none;stroke-dashoffset:0" />
      <rect
         ry="0.24659412"
         y="90.886597"
         x="183.93445"
         height="0.49318823"
         width="13.509779"
         id="rect8355"
         style="fill:#ffffff;fill-opacity:1;stroke:#ffffff;stroke-width:7.03102303;stroke-miterlimit:4;stroke-dasharray:none;stroke-dashoffset:0" />
      <rect
         ry="0.24659412"
         y="116.74837"
         x="194.57922"
         height="0.49318823"
         width="13.509779"
         id="rect8355-4"
         style="fill:#ffffff;fill-opacity:1;stroke:#ffffff;stroke-width:7.03102303;stroke-miterlimit:4;stroke-dasharray:none;stroke-dashoffset:0" />
      <rect
         ry="0.24659412"
         y="138.64563"
         x="207.90797"
         height="0.49318823"
         width="13.509779"
         id="rect8355-4-9"
         style="fill:#ffffff;fill-opacity:1;stroke:#ffffff;stroke-width:7.03102303;stroke-miterlimit:4;stroke-dasharray:none;stroke-dashoffset:0" />
      <path
         transform="translate(68.998581,23.299495)"
         d="m 99.33099,128.44547 c 0,2.19085 -1.776038,3.96689 -3.966892,3.96689 -2.190855,0 -3.966893,-1.77604 -3.966893,-3.96689 0,-2.19086 1.776038,-3.9669 3.966893,-3.9669 2.190854,0 3.966892,1.77604 3.966892,3.9669 z"
         sodipodi:ry="3.9668925"
         sodipodi:rx="3.9668925"
         sodipodi:cy="128.44547"
         sodipodi:cx="95.364098"
         id="path8393"
         style="fill:#ffffff;fill-opacity:1;stroke:#ffffff;stroke-width:10;stroke-miterlimit:4;stroke-dasharray:none;stroke-dashoffset:0"
         sodipodi:type="arc" />
      <path
         transform="translate(68.998581,23.299495)"
         d="m 123.4497,124.00254 c 0,3.593 -2.91271,6.5057 -6.50571,6.5057 -3.593,0 -6.5057,-2.9127 -6.5057,-6.5057 0,-3.593 2.9127,-6.5057 6.5057,-6.5057 3.593,0 6.50571,2.9127 6.50571,6.5057 z"
         sodipodi:ry="6.5057039"
         sodipodi:rx="6.5057039"
         sodipodi:cy="124.00254"
         sodipodi:cx="116.94399"
         id="path8395"
         style="fill:#ffffff;fill-opacity:1;stroke:#ffffff;stroke-width:10;stroke-miterlimit:4;stroke-dasharray:none;stroke-dashoffset:0"
         sodipodi:type="arc" />
      <path
         transform="translate(68.998581,23.299495)"
         d="m 99.965693,108.45232 c 0,0.96397 -0.781456,1.74543 -1.745432,1.74543 -0.963976,0 -1.745433,-0.78146 -1.745433,-1.74543 0,-0.96398 0.781457,-1.74544 1.745433,-1.74544 0.963976,0 1.745432,0.78146 1.745432,1.74544 z"
         sodipodi:ry="1.7454327"
         sodipodi:rx="1.7454327"
         sodipodi:cy="108.45232"
         sodipodi:cx="98.220261"
         id="path8397"
         style="fill:#ffffff;fill-opacity:1;stroke:#ffffff;stroke-width:10;stroke-miterlimit:4;stroke-dasharray:none;stroke-dashoffset:0"
         sodipodi:type="arc" />
    </g>
  </g>
</svg>
