<?xml version="1.0" encoding="UTF-8" standalone="no"?>
<!-- Created with Inkscape (http://www.inkscape.org/) -->

<svg
   xmlns:dc="http://purl.org/dc/elements/1.1/"
   xmlns:cc="http://creativecommons.org/ns#"
   xmlns:rdf="http://www.w3.org/1999/02/22-rdf-syntax-ns#"
   xmlns:svg="http://www.w3.org/2000/svg"
   xmlns="http://www.w3.org/2000/svg"
   xmlns:sodipodi="http://sodipodi.sourceforge.net/DTD/sodipodi-0.dtd"
   xmlns:inkscape="http://www.inkscape.org/namespaces/inkscape"
   id="svg2"
   version="1.1"
   inkscape:version="0.48.5 r10040"
   width="229.98996"
   height="229.99001"
   xml:space="preserve"
   sodipodi:docname="mami-bauhaus-short-new.pdf"><metadata
     id="metadata8"><rdf:RDF><cc:Work
         rdf:about=""><dc:format>image/svg+xml</dc:format><dc:type
           rdf:resource="http://purl.org/dc/dcmitype/StillImage" /><dc:title></dc:title></cc:Work></rdf:RDF></metadata><defs
     id="defs6"><clipPath
       clipPathUnits="userSpaceOnUse"
       id="clipPath18"><path
         d="M 0,0 99,0 99,146 0,146 0,0 z"
         id="path20"
         inkscape:connector-curvature="0" /></clipPath></defs><sodipodi:namedview
     pagecolor="#ffffff"
     bordercolor="#666666"
     borderopacity="1"
     objecttolerance="10"
     gridtolerance="10"
     guidetolerance="10"
     inkscape:pageopacity="0"
     inkscape:pageshadow="2"
     inkscape:window-width="959"
     inkscape:window-height="638"
     id="namedview4"
     showgrid="false"
     inkscape:zoom="1.2354862"
     inkscape:cx="53.057772"
     inkscape:cy="61.159889"
     inkscape:window-x="0"
     inkscape:window-y="0"
     inkscape:window-maximized="0"
     inkscape:current-layer="g10"
     fit-margin-top="45.87"
     fit-margin-left="10"
     fit-margin-right="10"
     fit-margin-bottom="45.87" /><g
     id="g10"
     inkscape:groupmode="layer"
     inkscape:label="mami-bauhaus-short"
     transform="matrix(1.25,0,0,-1.25,-13.62439,272.97235)"><g
       id="g12" /><g
       id="g3058"
       transform="matrix(2.4427947,0,0,2.4427947,-27.268117,-75.197276)"><g
         transform="matrix(1,0,0,-1,45.63779,73.38189)"
         id="g24"><text
           id="text26"
           transform="translate(-30.99609,13.5)"><tspan
             id="tspan28"
             y="0"
             x="0"
             style="font-size:80px;font-variant:normal;font-weight:normal;writing-mode:lr-tb;fill:#000000;fill-opacity:1;fill-rule:nonzero;stroke:none;font-family:Bauhaus 93;-inkscape-font-specification:Bauhaus93">m</tspan></text>
</g><g
         transform="matrix(1,0,0,-1,-288,265)"
         id="g30"><path
           inkscape:connector-curvature="0"
           id="path32"
           style="fill:none;stroke:#ffffff;stroke-width:5;stroke-linecap:round;stroke-linejoin:round;stroke-miterlimit:10;stroke-opacity:1;stroke-dasharray:none"
           d="m 361.8619,165.3821 c 8.856,8.856 8.856,23.2144 0,32.0704" /></g><g
         transform="matrix(1,0,0,-1,-288,265)"
         id="g34"><path
           inkscape:connector-curvature="0"
           id="path36"
           style="fill:none;stroke:#000000;stroke-width:3;stroke-linecap:round;stroke-linejoin:round;stroke-miterlimit:10;stroke-opacity:1;stroke-dasharray:none"
           d="m 365.8707,161.3734 c 11.07,11.0699 11.07,29.0179 0,40.0879" /></g><g
         transform="matrix(1,0,0,-1,-288,265)"
         id="g38"><path
           inkscape:connector-curvature="0"
           id="path40"
           style="fill:none;stroke:#ffffff;stroke-width:5;stroke-linecap:round;stroke-linejoin:round;stroke-miterlimit:10;stroke-opacity:1;stroke-dasharray:none"
           d="m 357.8532,169.3909 c 6.6419,6.642 6.6419,17.4108 0,24.0528" /></g><g
         transform="matrix(1,0,0,-1,-288,265)"
         id="g42"><path
           inkscape:connector-curvature="0"
           id="path44"
           style="fill:none;stroke:#000000;stroke-width:3;stroke-linecap:round;stroke-linejoin:round;stroke-miterlimit:10;stroke-opacity:1;stroke-dasharray:none"
           d="m 361.8619,165.3821 c 8.856,8.856 8.856,23.2144 0,32.0704" /></g><g
         transform="matrix(1,0,0,-1,-288,265)"
         id="g46"><path
           inkscape:connector-curvature="0"
           id="path48"
           style="fill:none;stroke:#000000;stroke-width:3;stroke-linecap:round;stroke-linejoin:round;stroke-miterlimit:10;stroke-opacity:1;stroke-dasharray:none"
           d="m 357.8532,169.3909 c 6.6419,6.642 6.6419,17.4108 0,24.0528" /></g><path
         inkscape:connector-curvature="0"
         id="path50"
         style="fill:#ff2600;fill-opacity:1;fill-rule:nonzero;stroke:none"
         d="m 63.83995,89.59586 c 3.32101,-3.32099 3.32101,-8.70538 0,-12.02637 -3.32099,-3.32101 -8.70537,-3.32101 -12.02637,0 -3.321,3.32099 -3.321,8.70538 0,12.02637 3.321,3.32101 8.70538,3.32101 12.02637,0" /></g></g></svg>